# xmcd
#
# Track frame offsets: 
#        150
#        17857
#        37852
#        56867
#        77277
#        94470
#        111872
#        133022
#        154325
#        176350
#        196325
#
# Disc length: 2956 seconds
#
# Revision: 1
# Processed by: cddbd v1.5.1PL0 Copyright (c) Steve Scherf et al.
# Submitted via: ExactAudioCopy v0.90b4
#
DISCID=8b0b8a0b
DTITLE=Ann Peebles - Full Time Lover
DYEAR=1992
DGENRE=R&B
TTITLE0=Bouncin'  Jack
TTITLE1=St. Louis Woman (With A Memphis Melody)
TTITLE2=Read Me My Rights
TTITLE3=Full Time Lover
TTITLE4=Fear No Evil
TTITLE5=Nobody But You
TTITLE6=Ain't No Business Like Your Business
TTITLE7=I Miss You
TTITLE8=Just You Just Me
TTITLE9=He's My Superman
TTITLE10=I Can't Stand The Rain
EXTD=
EXTT0=
EXTT1=
EXTT2=
EXTT3=
EXTT4=
EXTT5=
EXTT6=
EXTT7=
EXTT8=
EXTT9=
EXTT10=
PLAYORDER=
